<?xml version="1.0" standalone="no"?>
<!DOCTYPE svg PUBLIC "-//W3C//DTD SVG 20010904//EN"
 "http://www.w3.org/TR/2001/REC-SVG-20010904/DTD/svg10.dtd">
<svg version="1.0" xmlns="http://www.w3.org/2000/svg"
 width="1600.000000pt" height="1296.000000pt" viewBox="0 0 1600.000000 1296.000000"
 preserveAspectRatio="xMidYMid meet">

<g transform="translate(0.000000,1296.000000) scale(0.100000,-0.100000)"
fill="#000000" stroke="none">
<path d="M11100 12625 c-8 -10 -30 -15 -61 -15 -52 0 -64 -15 -34 -40 9 -7 14
-18 12 -24 -6 -16 34 -86 50 -86 7 0 13 -6 13 -13 0 -23 35 -47 68 -47 18 0
32 -4 32 -10 0 -5 -4 -10 -10 -10 -21 0 -8 -22 25 -41 19 -12 35 -26 35 -33 0
-17 43 -51 59 -47 12 2 13 0 3 -12 -10 -11 -9 -17 4 -28 9 -7 20 -23 25 -36 5
-13 17 -23 27 -23 10 0 27 -9 36 -19 10 -11 28 -22 42 -25 23 -6 34 -26 14
-26 -6 0 -18 -18 -27 -40 -10 -22 -25 -42 -33 -45 -15 -5 -40 -49 -40 -71 0
-7 -28 -42 -62 -77 -91 -95 -111 -119 -125 -150 -7 -15 -19 -30 -28 -33 -9 -4
-13 -13 -10 -24 3 -11 0 -20 -10 -23 -8 -4 -12 -13 -9 -21 3 -8 1 -17 -5 -21
-6 -3 -11 -19 -11 -34 0 -25 -3 -28 -25 -23 -22 4 -25 1 -25 -23 0 -15 -9 -40
-21 -56 -11 -16 -18 -33 -14 -38 3 -6 -2 -14 -11 -19 -11 -6 -15 -17 -12 -30
3 -12 3 -22 -2 -24 -15 -6 -60 -100 -60 -126 0 -15 -9 -41 -19 -58 -13 -21
-16 -35 -9 -42 7 -7 6 -17 -2 -31 -6 -12 -8 -31 -5 -41 4 -14 2 -20 -8 -20
-12 0 -14 -13 -12 -66 2 -36 8 -71 13 -77 5 -7 13 -27 17 -44 3 -18 12 -36 18
-40 7 -5 20 -25 29 -45 10 -21 24 -38 33 -38 8 0 15 -4 15 -9 0 -5 18 -29 40
-52 22 -24 40 -47 40 -51 0 -4 13 -8 30 -8 21 0 28 -4 24 -14 -3 -8 6 -21 23
-31 16 -9 35 -30 42 -47 7 -16 23 -33 36 -38 12 -5 25 -15 28 -23 3 -7 21 -22
41 -31 20 -9 36 -21 36 -26 0 -6 10 -10 23 -10 16 0 18 -3 8 -9 -10 -6 -4 -15
25 -37 21 -16 46 -37 56 -46 10 -10 24 -18 32 -18 8 0 31 -10 51 -21 27 -16
46 -20 77 -16 48 6 68 0 68 -20 0 -25 32 -42 78 -43 24 0 42 -5 42 -11 0 -6 6
-9 14 -6 7 3 18 1 24 -5 14 -14 153 -19 169 -6 7 5 18 6 24 2 9 -5 7 -9 -6
-14 -11 -4 -14 -9 -8 -13 5 -3 19 3 31 13 12 11 29 20 40 20 10 0 24 6 31 13
10 10 15 9 25 -5 7 -10 18 -18 25 -18 6 0 11 -7 11 -15 0 -19 2 -19 47 6 29
17 47 20 84 15 33 -5 51 -2 61 7 7 7 21 16 31 20 9 3 16 10 15 14 -1 4 2 20 6
36 11 37 -9 64 -33 44 -21 -18 -160 -40 -175 -28 -6 5 -40 7 -76 5 -120 -7
-235 0 -245 17 -4 5 -13 9 -21 9 -8 0 -33 8 -57 19 -58 26 -98 40 -122 44 -11
2 -31 9 -43 16 -13 7 -26 10 -29 7 -3 -3 -18 3 -33 14 -16 11 -33 20 -39 20
-16 0 -48 20 -83 53 -17 15 -36 27 -44 27 -8 0 -14 4 -14 9 0 5 -26 28 -57 52
-32 24 -71 59 -88 78 -16 19 -46 49 -65 65 -63 56 -150 149 -150 160 0 6 -9
22 -20 36 -11 14 -20 36 -20 50 0 14 -7 38 -15 53 -12 23 -12 38 -4 80 6 29
14 59 17 67 3 8 6 20 6 26 1 6 9 18 19 28 9 10 17 28 17 41 0 13 5 27 10 30 6
3 10 21 10 39 0 17 4 36 8 41 4 6 16 35 26 65 10 30 25 60 32 66 8 6 15 35 17
65 3 47 6 54 26 57 12 2 26 14 31 27 5 13 14 26 20 30 10 6 32 50 34 68 1 4 6
11 12 15 14 9 29 52 25 72 -2 8 0 12 4 8 9 -8 105 100 105 118 0 6 17 27 38
45 20 18 39 41 42 53 4 12 18 23 39 29 19 4 35 16 38 27 3 11 18 21 38 24 36
7 60 29 50 45 -3 7 0 8 9 5 8 -3 28 1 43 8 15 8 43 22 62 32 19 9 57 21 85 27
57 10 52 7 60 36 6 19 3 22 -26 25 -18 2 -44 0 -58 -4 -14 -4 -45 -12 -70 -19
-25 -7 -49 -16 -54 -21 -6 -4 -20 -8 -32 -8 -37 0 -54 -11 -54 -34 0 -15 -11
-26 -39 -38 -27 -12 -41 -25 -43 -40 -3 -20 -6 -18 -26 19 -12 22 -33 50 -47
61 -14 11 -25 25 -25 31 0 6 -4 11 -8 11 -11 0 -73 86 -94 131 -10 20 -24 39
-33 43 -8 3 -15 12 -15 20 0 8 -13 24 -29 35 -16 11 -38 41 -50 66 -12 25 -26
45 -31 45 -6 0 -10 4 -10 10 0 5 -8 23 -19 40 -16 27 -20 29 -31 15z m190
-809 c0 -3 -4 -8 -10 -11 -5 -3 -10 -1 -10 4 0 6 5 11 10 11 6 0 10 -2 10 -4z
m-90 -116 c0 -5 -7 -10 -16 -10 -8 0 -12 5 -9 10 3 6 10 10 16 10 5 0 9 -4 9
-10z"/>
<path d="M13945 12148 c-2 -7 -6 -47 -9 -88 -6 -89 -20 -181 -36 -230 -6 -19
-13 -59 -16 -89 -5 -66 -15 -79 -63 -86 -20 -3 -61 -11 -91 -17 -30 -6 -59
-12 -65 -13 -5 0 -21 -4 -35 -8 -14 -4 -43 -13 -65 -19 -22 -7 -55 -20 -73
-30 -18 -10 -40 -18 -50 -18 -9 0 -35 -14 -56 -30 -22 -17 -44 -30 -50 -30
-30 0 -86 -76 -86 -116 0 -12 8 -13 38 -8 20 4 39 10 42 13 7 10 76 41 89 41
6 0 11 10 11 23 1 20 2 20 11 5 12 -22 38 -23 45 -3 3 8 16 17 27 21 12 4 49
24 83 45 58 37 68 39 121 23 15 -4 27 0 39 14 14 16 22 19 42 11 32 -12 54 -5
46 16 -3 8 -1 15 5 15 9 0 17 -69 12 -102 -2 -13 -12 -123 -20 -218 -12 -134
-16 -145 -53 -147 -17 -1 -36 -7 -42 -13 -5 -5 -17 -10 -26 -10 -21 0 -102
-39 -115 -55 -14 -18 -52 -28 -59 -16 -4 5 -24 -2 -46 -17 -22 -14 -47 -27
-55 -28 -31 -5 -65 -39 -62 -61 3 -13 -1 -23 -8 -23 -16 0 -45 -33 -45 -52 0
-9 -7 -22 -16 -29 -22 -18 -36 -56 -39 -103 -3 -31 1 -39 16 -43 10 -3 19 -12
19 -20 0 -10 -6 -12 -19 -8 -21 6 -32 -14 -37 -70 -2 -16 -5 -49 -7 -71 -3
-25 -15 -56 -31 -76 -31 -42 -31 -41 -4 -78 15 -20 18 -33 11 -42 -11 -15 -5
-168 7 -168 5 0 18 -16 30 -35 14 -22 33 -38 53 -43 22 -6 33 -16 37 -33 3
-13 10 -24 15 -25 6 0 21 -5 35 -11 26 -11 97 -17 163 -15 31 2 46 10 77 42
21 22 44 40 50 40 15 0 68 57 79 85 4 11 7 56 5 100 -2 65 1 86 17 113 10 18
19 40 19 48 0 8 5 14 10 14 6 0 10 8 10 18 0 10 3 22 7 26 4 3 8 16 10 29 8
48 53 123 53 87 0 -16 17 -11 25 8 4 9 9 42 12 72 10 138 13 200 12 261 0 50
4 69 17 80 13 11 18 11 21 2 3 -7 11 -13 19 -13 8 0 14 -7 14 -15 0 -8 5 -15
10 -15 6 0 10 -11 10 -25 0 -14 5 -25 10 -25 6 0 10 -11 10 -24 0 -14 10 -33
23 -43 17 -14 21 -26 19 -55 -2 -28 1 -37 15 -41 15 -4 15 -5 2 -6 -25 -2 -28
-20 -19 -101 4 -40 6 -79 3 -85 -2 -7 6 -15 18 -18 18 -5 20 -9 11 -20 -6 -7
-12 -46 -13 -86 -2 -78 12 -107 55 -113 12 -2 20 -9 19 -18 -2 -8 9 -20 23
-27 23 -11 30 -9 59 13 18 14 39 22 48 18 10 -3 22 4 33 21 13 20 24 26 41 22
28 -5 63 26 63 55 0 11 7 18 20 18 11 0 23 7 26 15 3 8 14 17 25 20 11 4 21
19 25 41 3 19 11 34 17 34 22 0 58 53 52 77 -4 17 0 25 12 30 19 7 63 53 63
66 0 18 2 23 19 42 21 24 45 101 36 116 -4 5 -1 16 5 24 6 8 9 19 5 25 -4 6
-2 17 5 25 15 18 -6 31 -25 15 -10 -8 -19 -9 -27 -3 -7 5 -26 9 -43 8 -28 -2
-30 -5 -37 -51 -5 -27 -15 -61 -23 -75 -11 -20 -11 -29 -3 -37 9 -9 9 -12 -1
-12 -8 0 -11 -7 -8 -20 3 -10 -2 -25 -10 -31 -9 -8 -12 -21 -8 -36 4 -17 -1
-30 -20 -47 -14 -13 -25 -28 -25 -35 0 -6 -13 -23 -30 -37 -16 -15 -27 -31
-24 -35 3 -5 -2 -12 -10 -15 -9 -3 -16 -12 -16 -19 0 -7 -11 -20 -23 -28 -13
-9 -39 -32 -58 -52 -27 -28 -80 -65 -94 -65 -12 0 -24 68 -24 125 2 117 -33
379 -52 391 -5 3 -9 14 -9 25 0 10 -4 19 -10 19 -5 0 -10 9 -10 20 0 22 -56
104 -91 134 -13 10 -39 20 -58 21 -20 1 -45 3 -56 4 -29 2 -51 56 -38 92 6 15
8 47 5 71 -2 23 -4 54 -4 68 1 14 3 78 4 142 2 64 6 120 10 123 3 3 33 8 67
10 34 2 66 7 72 11 16 10 68 15 138 15 36 -1 68 4 71 9 4 6 43 12 87 14 55 3
91 10 112 22 26 15 36 16 61 7 18 -7 32 -7 36 -2 8 14 -5 29 -26 29 -10 0 -22
5 -25 10 -12 19 -92 14 -390 -25 -66 -9 -139 -19 -162 -22 l-43 -5 0 34 c0 19
11 90 24 158 14 68 23 127 21 130 -2 3 -5 43 -6 88 -3 72 -5 82 -21 82 -10 0
-20 -6 -23 -12z m-400 -648 c3 -5 -1 -10 -9 -10 -8 0 -18 5 -21 10 -3 6 1 10
9 10 8 0 18 -4 21 -10z m255 -420 c0 -5 -9 -14 -20 -20 -22 -12 -27 -1 -8 18
14 14 28 16 28 2z m18 -53 c21 1 23 -2 16 -26 -8 -30 -16 -112 -14 -156 1 -47
-21 -145 -34 -146 -6 -1 -17 -1 -23 0 -7 1 -13 -3 -13 -9 0 -5 7 -10 16 -10 9
0 14 -7 13 -17 -2 -10 1 -29 5 -42 6 -18 4 -28 -9 -37 -11 -9 -19 -31 -22 -61
-2 -26 -11 -55 -19 -64 -8 -8 -21 -37 -30 -63 -12 -35 -24 -50 -43 -57 -25 -9
-27 -14 -29 -77 -2 -89 -5 -105 -19 -115 -7 -4 -13 -16 -13 -27 0 -24 -59 -60
-98 -60 -17 0 -47 11 -66 24 -40 27 -105 94 -108 110 -3 22 -5 31 -12 47 -4 9
-5 72 -3 140 4 127 23 235 44 261 7 7 11 23 11 33 -1 11 8 40 19 65 12 25 27
60 33 78 7 18 26 40 41 49 16 10 29 23 29 29 0 6 23 14 50 18 41 6 50 10 50
27 0 25 25 35 46 18 14 -12 19 -10 38 14 12 15 27 27 34 27 6 0 16 9 22 21 9
17 17 19 38 13 15 -4 37 -7 50 -7z m922 -186 c0 -5 -7 -12 -16 -15 -24 -9 -28
-7 -14 9 14 17 30 20 30 6z m-844 -58 c-11 -11 -17 4 -9 23 7 18 8 18 11 1 2
-10 1 -21 -2 -24z m-553 -49 c-4 -10 -10 -11 -24 -3 -24 12 -16 29 10 22 12
-3 17 -11 14 -19z m2 -54 c-3 -5 -11 -10 -16 -10 -6 0 -7 5 -4 10 3 6 11 10
16 10 6 0 7 -4 4 -10z"/>
<path d="M13425 10110 c-3 -5 -1 -10 4 -10 6 0 11 5 11 10 0 6 -2 10 -4 10 -3
0 -8 -4 -11 -10z"/>
<path d="M14514 11448 c-5 -8 22 -63 44 -86 6 -7 12 -17 12 -21 0 -5 21 -25
47 -45 48 -37 83 -47 83 -22 0 8 6 16 12 18 9 3 8 9 -4 21 -9 9 -21 17 -26 17
-5 0 -22 18 -37 40 -15 22 -31 40 -35 40 -3 0 -12 11 -20 24 -9 18 -21 24 -42
24 -16 -1 -31 -5 -34 -10z"/>
<path d="M12585 8148 c-8 -5 -30 -9 -50 -10 -20 -1 -38 -5 -41 -10 -3 -4 -18
-8 -33 -8 -15 0 -31 -4 -36 -8 -6 -5 -37 -19 -70 -32 -33 -13 -76 -33 -95 -45
-19 -11 -56 -31 -82 -43 -26 -13 -61 -36 -78 -52 -18 -17 -35 -30 -38 -30 -11
0 -117 -55 -130 -67 -7 -7 -26 -20 -42 -30 -17 -9 -30 -21 -30 -25 0 -4 -6 -8
-12 -8 -7 0 -37 -23 -67 -50 -29 -28 -57 -50 -63 -50 -5 0 -6 -10 -3 -22 6
-17 4 -20 -9 -15 -20 8 -113 -74 -127 -111 -5 -12 -20 -27 -34 -32 -17 -6 -27
-20 -32 -41 -3 -17 -12 -33 -19 -36 -8 -3 -30 -27 -49 -53 -28 -38 -34 -54
-29 -77 4 -23 2 -32 -11 -37 -9 -3 -20 -4 -25 -1 -4 2 -15 -16 -25 -40 -9 -25
-22 -45 -30 -45 -15 0 -40 -55 -30 -69 3 -6 -1 -11 -9 -11 -11 0 -16 -10 -16
-31 0 -17 -6 -37 -14 -45 -8 -7 -12 -22 -9 -33 3 -10 0 -22 -6 -25 -19 -12
-12 -36 12 -37 17 -1 18 -2 4 -6 -13 -3 -17 -13 -14 -38 2 -24 16 -45 52 -79
27 -25 50 -44 51 -43 2 2 -3 21 -11 42 -10 29 -10 44 -2 53 8 10 8 15 -1 21
-26 16 9 31 89 37 119 10 197 5 313 -18 55 -11 108 -19 116 -18 50 4 122 0
140 -10 29 -15 25 -30 -9 -30 -16 0 -42 -7 -57 -15 -16 -8 -36 -15 -45 -15 -9
0 -23 -10 -32 -22 -13 -20 -18 -21 -35 -11 -16 10 -21 9 -26 -2 -3 -9 -18 -15
-36 -15 -16 0 -30 -4 -30 -9 0 -18 -91 -43 -107 -30 -7 6 -25 8 -39 5 -31 -8
-84 -46 -84 -60 0 -5 -7 -17 -16 -27 -21 -23 -11 -57 11 -39 9 8 15 8 15 2 0
-6 -5 -12 -11 -14 -9 -3 -9 -16 -1 -53 21 -92 20 -119 -5 -130 -26 -11 -30
-25 -8 -25 8 0 15 5 15 10 0 6 7 10 16 10 11 0 15 -6 11 -19 -6 -23 11 -54 25
-45 8 5 9 1 5 -10 -4 -10 -7 -20 -7 -22 0 -2 -6 -4 -14 -4 -8 0 -20 14 -28 30
-7 17 -21 30 -31 30 -15 0 -15 -3 -5 -21 12 -18 10 -23 -17 -45 -16 -13 -38
-24 -47 -24 -12 0 -18 -8 -18 -25 0 -20 -5 -25 -25 -25 -20 0 -25 -5 -25 -25
0 -15 -9 -31 -25 -41 -14 -9 -25 -24 -25 -34 0 -10 -5 -20 -12 -22 -9 -3 -9
-6 0 -12 7 -4 12 -2 12 3 0 6 13 11 28 11 15 0 33 5 39 11 6 6 19 9 29 7 13
-3 3 -11 -33 -28 -50 -24 -70 -50 -38 -50 8 0 15 -4 15 -10 0 -5 -4 -10 -10
-10 -5 0 -10 -13 -10 -30 0 -18 -5 -30 -13 -30 -7 0 -22 -7 -33 -15 -19 -14
-19 -15 3 -21 18 -5 20 -9 11 -24 -7 -10 -18 -16 -25 -13 -17 7 -16 -2 3 -32
9 -13 13 -28 10 -33 -8 -13 33 -23 63 -15 16 4 22 2 17 -5 -3 -6 3 -18 15 -26
20 -14 25 -14 51 2 15 9 28 22 28 29 0 17 15 16 30 -2 7 -8 16 -15 20 -15 22
0 65 -59 66 -89 1 -19 10 -40 23 -52 18 -17 21 -27 15 -69 -7 -53 -8 -52 66
-64 31 -5 37 -3 47 20 6 14 9 32 7 39 -3 7 8 23 25 36 21 15 31 31 31 49 0 31
47 80 77 80 17 0 23 8 28 40 4 26 11 38 18 33 6 -4 25 -8 42 -10 37 -4 75 30
77 68 1 13 6 30 11 37 7 8 4 18 -7 31 -14 15 -14 19 -3 24 10 3 13 15 10 31
-4 21 -1 26 15 26 30 0 37 18 16 41 -9 11 -12 19 -6 19 14 0 62 92 62 119 0
11 4 22 9 25 5 3 18 24 30 47 12 22 32 52 46 67 29 31 29 30 12 62 -8 16 -12
58 -11 113 1 72 5 91 19 101 13 9 16 19 10 32 -5 10 -10 35 -12 54 -2 19 -9
38 -16 42 -8 5 -7 8 5 8 28 0 31 19 4 30 -15 5 -25 15 -24 22 2 7 -4 12 -12
13 -8 0 -16 8 -18 18 -4 19 -12 18 163 19 70 1 130 -4 142 -10 20 -11 39 -10
223 18 61 9 262 23 340 24 19 1 40 5 47 9 7 4 24 5 38 1 14 -3 33 -3 42 1 10
4 57 10 106 12 73 4 88 2 93 -11 9 -23 46 -21 42 2 -2 13 5 17 32 18 19 1 60
6 90 12 30 6 78 14 107 17 52 7 96 36 74 50 -6 3 -11 15 -11 26 0 23 28 26 37
4 5 -14 7 -14 23 0 15 14 17 22 8 46 -5 16 -7 36 -4 45 4 9 -2 18 -17 24 -12
5 -17 9 -11 9 16 1 26 31 16 45 -5 6 -14 30 -21 54 -7 24 -18 45 -26 48 -8 3
-11 12 -8 20 3 8 -2 30 -11 49 -9 19 -23 52 -32 73 -8 20 -21 48 -29 62 -7 14
-30 58 -51 98 -26 49 -44 72 -56 72 -10 0 -18 -4 -18 -10 0 -5 -4 -10 -10 -10
-15 0 -12 16 6 34 14 14 13 19 -13 53 -36 49 -79 93 -90 93 -5 0 -30 22 -55
49 -25 27 -65 57 -87 67 -23 10 -41 21 -41 26 0 4 -7 8 -15 8 -8 0 -15 6 -15
13 0 12 -44 37 -65 37 -7 0 -20 9 -29 19 -10 10 -37 24 -61 30 -24 6 -68 24
-98 39 -32 17 -73 29 -101 31 -26 1 -59 6 -72 11 -29 11 -117 10 -139 -2z
m182 -82 c18 -9 40 -16 50 -16 10 0 27 -6 38 -14 11 -7 38 -19 60 -26 60 -20
173 -89 231 -141 11 -11 25 -19 32 -19 6 0 16 -8 21 -18 28 -53 111 -113 111
-81 0 7 9 3 20 -9 11 -12 20 -30 20 -40 0 -10 3 -22 6 -25 4 -4 8 -20 9 -37 3
-33 28 -59 57 -60 27 0 32 -20 4 -20 -13 0 -26 -6 -28 -12 -7 -19 32 -86 52
-91 10 -3 21 -19 25 -37 4 -18 16 -41 26 -51 23 -23 25 -41 2 -32 -13 5 -15 3
-9 -13 4 -10 10 -31 13 -47 3 -15 10 -30 14 -33 5 -3 9 -12 9 -20 0 -17 23
-44 38 -44 17 0 34 -27 22 -35 -18 -11 0 -25 32 -25 17 0 28 -3 24 -7 -4 -5
-11 -8 -14 -8 -51 -4 -75 -55 -26 -55 18 0 25 4 21 14 -6 16 2 28 14 21 12 -8
-11 -65 -27 -65 -8 0 -37 -11 -66 -25 -47 -23 -63 -25 -188 -25 -75 0 -140 -4
-146 -9 -5 -5 -38 -11 -72 -13 -35 -1 -66 -6 -68 -10 -8 -12 -142 -9 -149 3
-5 7 -13 4 -26 -7 -16 -14 -46 -17 -191 -20 -99 -2 -176 -8 -182 -14 -5 -5
-31 -10 -57 -10 -26 0 -51 -5 -54 -10 -4 -7 -13 -6 -26 1 -15 7 -24 7 -34 -1
-10 -8 -15 -8 -20 1 -6 8 -10 8 -16 -2 -6 -11 -11 -11 -20 -2 -6 6 -18 9 -25
6 -8 -3 -17 2 -20 11 -7 18 -59 22 -69 6 -6 -10 -92 -7 -102 4 -4 3 -28 6 -55
6 -27 0 -48 5 -48 11 0 6 -23 9 -57 8 -90 -2 -206 12 -225 28 -15 13 -20 12
-51 -11 -34 -26 -50 -26 -40 0 8 20 -42 41 -61 25 -8 -7 -20 -10 -25 -7 -5 4
-12 2 -16 -4 -9 -15 -25 -12 -25 6 0 11 -6 14 -22 8 -43 -13 -88 -6 -108 18
-22 26 -25 41 -8 36 16 -6 48 22 48 41 0 7 -7 19 -16 25 -19 14 -9 46 15 46
37 1 98 77 115 143 3 15 13 27 21 27 18 0 57 73 49 93 -3 9 8 20 32 32 33 15
35 19 22 29 -12 8 -14 17 -7 27 8 12 10 12 18 0 5 -8 14 -10 22 -5 8 4 23 8
34 9 16 0 20 7 20 31 0 36 29 74 57 74 11 0 18 7 18 18 0 10 13 25 29 35 16 9
32 28 35 42 5 18 13 25 31 25 14 0 29 8 35 20 6 11 20 20 30 20 11 0 20 5 20
10 0 6 -4 10 -10 10 -5 0 -10 5 -10 10 0 6 9 10 20 10 11 0 20 -4 20 -10 0 -5
7 -10 16 -10 11 0 14 6 9 20 -4 14 -2 20 8 20 25 0 104 49 121 75 11 16 26 25
42 25 15 0 43 15 67 35 22 19 55 38 74 41 18 3 33 12 33 20 0 8 6 11 15 8 8
-4 17 1 21 10 3 9 10 14 14 11 4 -3 43 4 86 15 43 11 85 18 93 15 9 -2 22 -1
29 4 21 13 115 5 149 -13z m-1067 -535 c0 -5 -11 -8 -25 -7 -33 1 -33 16 0 16
14 0 25 -4 25 -9z m1884 -210 c8 -13 -3 -19 -24 -14 -11 3 -17 9 -14 14 7 11
31 12 38 0z m57 -34 c-1 -12 -15 -9 -19 4 -3 6 1 10 8 8 6 -3 11 -8 11 -12z
m-41 -17 c0 -5 -7 -7 -15 -4 -8 4 -15 8 -15 10 0 2 7 4 15 4 8 0 15 -4 15 -10z
m-20 -40 c0 -5 -5 -10 -11 -10 -5 0 -7 5 -4 10 3 6 8 10 11 10 2 0 4 -4 4 -10z
m105 -120 c3 -5 1 -10 -4 -10 -6 0 -11 5 -11 10 0 6 2 10 4 10 3 0 8 -4 11
-10z m-2380 -110 c3 -5 1 -10 -4 -10 -6 0 -11 5 -11 10 0 6 2 10 4 10 3 0 8
-4 11 -10z m719 -225 c-15 -23 -34 -33 -34 -18 0 10 32 43 42 43 5 0 1 -11 -8
-25z m107 -28 c-10 -9 -11 -8 -5 6 3 10 9 15 12 12 3 -3 0 -11 -7 -18z m-151
3 c0 -5 -4 -10 -10 -10 -5 0 -10 5 -10 10 0 6 5 10 10 10 6 0 10 -4 10 -10z
m-325 -230 c-3 -5 -11 -10 -16 -10 -6 0 -7 5 -4 10 3 6 11 10 16 10 6 0 7 -4
4 -10z m-120 -261 c-3 -4 -12 -6 -20 -3 -8 4 -13 10 -10 15 3 4 12 6 20 3 8
-4 13 -10 10 -15z m12 -76 c2 -24 0 -43 -4 -43 -15 0 -63 55 -63 73 0 15 6 18
33 15 30 -3 32 -5 34 -45z m-122 17 c-3 -5 -10 -10 -16 -10 -5 0 -9 5 -9 10 0
6 7 10 16 10 8 0 12 -4 9 -10z m-37 -22 c-3 -7 -13 -15 -24 -17 -16 -3 -17 -1
-5 13 16 19 34 21 29 4z m92 -81 c0 -19 -10 -27 -26 -20 -21 8 -17 33 6 33 11
0 20 -6 20 -13z m-40 -44 c0 -5 -7 -16 -14 -26 -16 -20 -30 -8 -20 17 6 16 34
23 34 9z m155 -33 c-3 -5 -13 -10 -21 -10 -8 0 -14 5 -14 10 0 6 9 10 21 10
11 0 17 -4 14 -10z m335 6 c0 -11 -52 -56 -60 -51 -12 7 29 55 47 55 7 0 13
-2 13 -4z m-518 -64 c-15 -5 -16 -29 -2 -37 6 -4 17 -2 24 4 17 14 26 4 26
-28 -1 -22 -3 -24 -13 -11 -8 10 -25 14 -51 12 -29 -3 -36 0 -30 10 4 7 8 24
8 38 1 14 6 25 13 25 6 0 15 4 19 8 5 5 10 3 13 -4 2 -7 -1 -15 -7 -17z m-63
-59 c2 -2 -5 -3 -17 -3 -14 0 -22 6 -22 16 0 14 3 15 18 3 9 -7 19 -15 21 -16z
m611 17 c0 -5 -7 -10 -15 -10 -8 0 -15 5 -15 10 0 6 7 10 15 10 8 0 15 -4 15
-10z m-583 -72 c-3 -8 -6 -5 -6 6 -1 11 2 17 5 13 3 -3 4 -12 1 -19z m570 5
c-9 -9 -19 -14 -23 -11 -10 10 6 28 24 28 15 0 15 -1 -1 -17z m-247 -193 c0
-11 -7 -20 -15 -20 -8 0 -15 -8 -15 -18 0 -28 -11 -34 -31 -16 -19 17 -15 44
6 44 7 0 15 7 19 15 8 22 36 18 36 -5z"/>
<path d="M12405 7733 c-20 -7 -42 -10 -50 -7 -8 3 -22 -1 -30 -10 -9 -9 -32
-16 -50 -16 -24 0 -39 -7 -54 -26 -15 -20 -21 -22 -21 -10 0 18 -4 19 -28 7
-9 -5 -29 -14 -45 -22 -20 -9 -26 -17 -21 -31 3 -11 1 -25 -5 -32 -20 -24 -61
-111 -61 -129 0 -10 -12 -37 -28 -60 -15 -24 -26 -53 -25 -67 2 -20 9 -90 12
-133 1 -4 7 -7 14 -6 6 1 29 -5 49 -14 41 -19 153 -23 163 -7 3 6 32 10 64 10
36 0 72 7 96 19 28 13 46 16 62 10 13 -5 25 -4 28 1 4 6 23 10 44 10 41 0 91
19 91 35 0 13 34 81 50 100 10 12 10 19 -1 31 -12 15 -11 16 9 10 16 -6 21 -4
16 7 -2 7 2 20 11 27 19 16 19 30 0 30 -8 0 -15 5 -15 10 0 6 5 10 12 10 7 0
24 12 40 27 25 24 26 27 10 39 -16 12 -16 13 0 14 24 0 31 16 16 39 -10 16
-10 23 0 33 22 22 12 47 -30 75 -37 25 -50 28 -130 28 -48 0 -88 3 -88 7 0 10
-65 5 -105 -9z m237 -125 c-5 -76 -29 -132 -79 -186 -13 -14 -22 -31 -19 -39
3 -7 1 -15 -5 -19 -7 -4 -7 -10 0 -18 21 -25 -28 -54 -102 -61 -37 -4 -70 -11
-73 -16 -3 -5 -27 -9 -53 -9 -26 0 -56 -6 -67 -14 -23 -18 -133 -11 -150 10
-13 16 0 142 16 158 5 5 10 20 10 32 0 13 5 26 10 29 6 3 10 16 10 28 1 30 23
57 47 57 23 0 73 22 73 33 0 4 9 7 19 7 11 0 23 5 26 10 3 6 17 10 30 10 13 0
25 5 27 11 4 12 12 14 136 25 40 4 75 11 78 15 3 5 20 9 38 9 l33 0 -5 -72z"/>
<path d="M13158 7731 c-1 -5 -33 -11 -70 -13 -37 -3 -71 -8 -75 -11 -3 -4 -19
-7 -35 -7 -28 0 -39 -22 -17 -36 6 -3 9 -19 5 -35 -6 -33 12 -40 34 -14 7 9
20 13 28 10 8 -3 23 2 34 12 14 13 21 14 30 5 7 -7 20 -12 30 -12 18 0 77 -56
78 -74 0 -5 -8 -15 -17 -21 -17 -13 -17 -14 0 -32 13 -16 16 -30 11 -69 -4
-27 -11 -54 -16 -61 -5 -6 -8 -19 -6 -28 3 -18 -10 -29 -54 -45 -18 -6 -28
-17 -28 -30 0 -21 -14 -27 -25 -10 -10 16 -45 11 -76 -11 l-29 -20 -9 23 c-5
13 -5 30 1 41 5 10 6 27 3 38 -4 11 -3 25 3 32 9 13 27 91 38 170 6 46 6 47
-20 47 -14 0 -26 -4 -26 -10 0 -5 5 -10 12 -10 6 0 0 -12 -14 -27 -27 -29 -38
-69 -25 -90 8 -13 -19 -63 -34 -63 -5 0 -7 -11 -3 -24 3 -13 1 -27 -5 -30 -6
-4 -11 -16 -11 -27 0 -11 -7 -30 -15 -43 -9 -13 -14 -30 -13 -37 2 -8 -3 -13
-10 -11 -8 1 -12 -3 -10 -10 6 -16 57 -30 85 -23 12 3 24 1 27 -4 7 -11 92 11
141 38 22 12 46 21 53 21 25 0 112 45 112 57 0 7 10 13 23 13 13 0 29 6 35 12
10 10 8 16 -10 30 l-23 18 23 0 c12 0 22 6 23 13 0 6 3 38 5 70 3 41 1 57 -8
57 -9 0 -9 3 -2 8 18 12 25 44 13 58 -6 8 -8 21 -5 30 4 10 -1 25 -9 34 -11
12 -13 20 -6 25 18 11 12 35 -8 35 -11 0 -21 5 -23 11 -4 11 -71 39 -95 39 -6
0 -13 -4 -15 -9z m72 -211 c0 -5 -4 -10 -10 -10 -5 0 -10 5 -10 10 0 6 5 10
10 10 6 0 10 -4 10 -10z"/>
<path d="M12862 7688 c-17 -17 -15 -32 6 -51 25 -22 49 -21 62 2 14 28 13 38
-7 44 -10 2 -25 8 -33 11 -9 4 -21 1 -28 -6z"/>
<path d="M13872 6929 c-36 -14 -53 -34 -39 -48 6 -6 20 -11 30 -11 15 0 17 3
8 13 -8 11 -5 16 14 25 14 6 25 16 25 22 0 12 -7 12 -38 -1z"/>
<path d="M13937 6913 c-12 -12 -7 -25 7 -20 7 3 19 0 25 -6 8 -8 11 -7 11 5 0
9 -7 19 -16 22 -19 7 -19 7 -27 -1z"/>
<path d="M13510 6828 c0 -43 -5 -57 -26 -80 -24 -24 -32 -27 -70 -21 -25 3
-44 2 -44 -3 0 -11 -52 -44 -69 -44 -19 0 -12 22 9 27 11 3 24 20 30 39 12 36
43 60 73 55 12 -1 17 4 17 19 0 16 -4 20 -16 16 -9 -4 -22 -2 -28 3 -6 5 -27
10 -46 12 -27 2 -41 -3 -62 -24 -29 -29 -36 -31 -57 -18 -19 12 -40 -27 -34
-62 4 -21 2 -25 -14 -21 -25 7 -53 -24 -33 -36 11 -7 10 -11 -3 -24 -8 -9 -21
-16 -28 -16 -22 0 -88 -35 -89 -46 0 -6 -6 -17 -14 -24 -8 -6 -16 -24 -18 -38
-2 -15 -9 -27 -17 -27 -8 0 -16 -6 -18 -12 -3 -7 0 -13 6 -13 6 0 11 -4 11
-10 0 -5 -11 -10 -25 -10 -24 0 -75 -42 -75 -61 0 -5 -9 -18 -21 -30 -15 -15
-20 -30 -17 -51 4 -24 1 -32 -14 -36 -18 -4 -26 -22 -9 -22 5 0 12 -7 15 -16
5 -12 2 -15 -10 -10 -11 4 -29 -7 -55 -34 -40 -41 -52 -74 -24 -64 8 4 15 1
15 -5 0 -6 -5 -11 -11 -11 -9 0 -9 -4 0 -13 8 -11 6 -18 -9 -32 -15 -13 -17
-21 -9 -31 8 -9 4 -17 -15 -29 -29 -19 -34 -35 -11 -35 20 0 8 -27 -16 -33
-10 -3 -19 -10 -19 -16 0 -17 31 -26 40 -11 5 8 20 10 49 5 l41 -7 -26 -20
c-21 -17 -28 -18 -34 -7 -5 7 -12 10 -15 7 -10 -9 -13 -88 -4 -88 4 0 10 -14
14 -30 8 -36 32 -51 85 -53 41 -1 58 -17 19 -17 -36 0 -14 -25 27 -30 25 -3
34 -8 26 -13 -10 -7 -9 -11 2 -23 16 -16 96 -19 96 -4 0 6 -4 10 -10 10 -15 0
-12 12 9 36 12 16 25 20 44 17 l26 -5 -22 -18 c-17 -15 -19 -21 -10 -31 9 -9
15 -10 27 0 8 7 25 9 40 5 16 -4 26 -2 26 5 0 6 -6 11 -14 11 -8 0 -16 7 -20
15 -7 19 3 19 28 0 25 -19 70 -19 86 -1 9 12 17 13 36 4 18 -9 28 -8 36 0 7 7
22 12 33 12 12 0 25 3 29 8 4 4 49 7 99 7 82 0 92 2 102 20 8 16 16 19 35 14
42 -12 44 -11 70 39 14 26 34 55 45 64 17 15 18 19 5 28 -20 13 -57 13 -66 -1
-3 -6 -1 -15 6 -19 17 -10 8 -44 -13 -48 -12 -2 -17 3 -17 17 0 12 -4 21 -10
21 -16 0 -65 -24 -72 -36 -4 -6 -24 -11 -45 -12 -23 -1 -43 -8 -51 -19 -13
-17 -14 -17 -28 1 -19 26 -18 37 4 43 11 2 25 20 32 38 9 22 26 40 47 50 43
21 62 15 37 -10 -19 -18 -18 -18 16 -12 19 4 38 11 43 16 14 14 -2 31 -29 31
-14 0 -22 4 -19 10 3 6 17 10 30 10 20 0 25 7 31 35 5 29 11 35 27 33 11 -2
22 3 24 10 3 6 -2 12 -11 12 -21 0 -30 18 -16 35 15 18 33 20 27 3 -8 -23 26
-68 51 -68 19 0 23 4 19 19 -3 12 3 27 13 36 10 9 16 24 13 35 -4 13 1 22 13
27 11 3 29 13 42 21 20 13 21 16 6 27 -16 11 -16 12 0 18 20 8 21 46 2 53 -8
3 -24 1 -35 -6 -12 -6 -21 -7 -21 -1 0 5 16 16 35 25 41 20 37 40 -6 31 -23
-5 -29 -3 -29 10 0 13 3 15 13 7 8 -7 18 -7 27 -2 12 7 11 12 -4 29 -19 21
-19 21 5 23 13 0 30 1 36 1 7 -1 10 3 7 8 -3 5 2 12 10 15 24 9 19 24 -8 24
-23 0 -54 25 -43 36 3 3 15 0 27 -6 16 -9 25 -9 36 0 11 10 15 9 20 -4 3 -9
12 -16 19 -16 7 0 15 -7 19 -15 8 -21 23 -19 29 5 3 11 13 20 22 20 11 0 15
-5 12 -15 -4 -8 -1 -17 5 -21 15 -10 29 18 16 33 -8 10 -6 17 8 28 18 13 18
14 2 20 -22 9 -24 35 -3 35 17 0 20 35 4 46 -6 4 -9 19 -5 36 6 31 -11 68 -31
68 -21 0 -15 16 12 34 20 13 25 25 25 55 0 39 -20 68 -40 56 -5 -3 -8 -20 -5
-37 4 -22 1 -34 -12 -44 -21 -16 -69 -18 -78 -4 -9 15 -22 12 -30 -7 -4 -13 4
-27 32 -50 l38 -32 -28 -10 c-15 -6 -36 -25 -45 -43 -9 -18 -32 -46 -49 -63
-18 -17 -33 -35 -33 -40 0 -5 -12 -20 -27 -32 -14 -13 -23 -26 -18 -31 4 -4
10 -1 12 6 5 14 33 16 33 2 0 -5 -6 -10 -14 -10 -8 0 -16 -6 -19 -12 -3 -10
-7 -10 -19 -1 -8 7 -18 10 -21 7 -3 -3 -12 -2 -19 2 -7 5 -16 9 -20 9 -15 0
-20 15 -5 15 10 0 17 5 17 10 0 6 -9 10 -21 10 -11 0 -27 7 -36 15 -13 14 -11
15 25 9 37 -6 42 -4 55 22 8 16 27 40 41 53 14 14 26 31 26 38 0 8 6 16 14 19
18 7 13 64 -7 79 -13 9 -11 13 15 28 16 9 34 15 39 11 5 -3 9 7 9 21 0 23 -4
26 -27 23 -17 -2 -28 -9 -28 -18 0 -9 -11 -16 -27 -18 -22 -3 -28 1 -28 17 0
11 -4 23 -10 26 -5 3 -10 1 -10 -4 0 -16 -32 -13 -58 5 -13 9 -29 13 -37 10
-8 -3 -15 -1 -15 4 0 6 -7 10 -15 10 -10 0 -15 10 -15 30 0 17 -4 30 -10 30
-5 0 -10 -23 -10 -52z m-222 -81 c3 -13 -4 -17 -31 -17 -40 0 -46 5 -40 29 4
15 11 17 36 12 19 -4 33 -14 35 -24z m394 -36 c-4 -26 -7 -29 -23 -21 -29 16
-33 31 -10 37 12 3 21 10 21 15 0 5 4 7 8 4 5 -3 7 -19 4 -35z m-97 18 c11
-17 -1 -21 -15 -4 -8 9 -8 15 -2 15 6 0 14 -5 17 -11z m-45 -29 c0 -5 -7 -10
-15 -10 -8 0 -15 5 -15 10 0 6 7 10 15 10 8 0 15 -4 15 -10z m94 -6 c27 -10
20 -44 -9 -44 -14 0 -25 -5 -25 -10 0 -7 -8 -6 -22 1 -18 10 -20 13 -8 17 8 3
21 13 28 24 15 20 15 20 36 12z m-364 -94 c0 -5 -12 -10 -26 -10 -14 0 -23 4
-19 10 3 6 15 10 26 10 10 0 19 -4 19 -10z m290 -5 c0 -16 -45 -21 -54 -6 -8
12 4 21 31 21 14 0 23 -6 23 -15z m130 5 c0 -5 -4 -10 -9 -10 -6 0 -13 5 -16
10 -3 6 1 10 9 10 9 0 16 -4 16 -10z m-664 -47 c-10 -10 -19 5 -10 18 6 11 8
11 12 0 2 -7 1 -15 -2 -18z m171 -49 c-3 -3 -12 -4 -19 -1 -8 3 -5 6 6 6 11 1
17 -2 13 -5z m-52 -24 c-3 -5 -10 -10 -16 -10 -5 0 -9 5 -9 10 0 6 7 10 16 10
8 0 12 -4 9 -10z m145 -30 c0 -5 -5 -10 -11 -10 -5 0 -7 5 -4 10 3 6 8 10 11
10 2 0 4 -4 4 -10z m140 -65 c0 -8 5 -15 10 -15 6 0 10 -4 10 -10 0 -15 -26
-12 -40 5 -12 15 -6 35 11 35 5 0 9 -7 9 -15z m271 3 c21 13 26 3 7 -16 -18
-18 -43 -15 -64 9 -19 21 -19 21 9 8 22 -10 33 -10 48 -1z m-96 -18 c16 -18
16 -20 2 -20 -10 0 -17 5 -17 10 0 6 -9 10 -20 10 -11 0 -20 5 -20 10 0 17 36
11 55 -10z m-715 -10 c0 -5 -4 -10 -10 -10 -5 0 -10 5 -10 10 0 6 5 10 10 10
6 0 10 -4 10 -10z m400 -21 c0 -14 -17 -10 -23 5 -4 10 -1 13 9 9 7 -3 14 -9
14 -14z m-54 -14 c-1 -9 -5 -15 -9 -15 -4 0 -11 0 -17 0 -5 0 -10 7 -10 15 0
8 9 15 19 15 12 0 18 -6 17 -15z m-101 -4 c7 -12 -12 -24 -25 -16 -11 7 -4 25
10 25 5 0 11 -4 15 -9z m195 -1 c0 -5 -4 -10 -10 -10 -5 0 -10 5 -10 10 0 6 5
10 10 10 6 0 10 -4 10 -10z m295 -20 c17 -19 17 -20 -1 -20 -10 0 -29 -3 -41
-6 -18 -5 -23 -2 -23 13 0 38 36 45 65 13z m-295 -14 c0 -3 -4 -8 -10 -11 -5
-3 -10 -1 -10 4 0 6 5 11 10 11 6 0 10 -2 10 -4z m210 -26 c0 -5 -4 -10 -9
-10 -5 0 -17 -3 -27 -7 -16 -6 -17 -5 -4 10 17 18 40 22 40 7z m-184 -22 c9
-14 -32 -49 -49 -42 -7 2 -18 14 -25 25 -12 19 -11 20 7 14 12 -4 21 -2 21 4
0 15 37 14 46 -1z m374 -18 c0 -5 -4 -10 -10 -10 -5 0 -10 5 -10 10 0 6 5 10
10 10 6 0 10 -4 10 -10z m-60 -4 c0 -3 -4 -8 -10 -11 -5 -3 -10 -1 -10 4 0 6
5 11 10 11 6 0 10 -2 10 -4z m-50 -16 c0 -5 -7 -7 -15 -4 -8 4 -15 8 -15 10 0
2 7 4 15 4 8 0 15 -4 15 -10z m-445 -9 c7 -12 -12 -24 -25 -16 -11 7 -4 25 10
25 5 0 11 -4 15 -9z m575 5 c0 -3 -4 -8 -10 -11 -5 -3 -10 -1 -10 4 0 6 5 11
10 11 6 0 10 -2 10 -4z m-225 -36 c-3 -5 -10 -10 -16 -10 -5 0 -9 5 -9 10 0 6
7 10 16 10 8 0 12 -4 9 -10z m81 -17 c-10 -10 -19 5 -10 18 6 11 8 11 12 0 2
-7 1 -15 -2 -18z m-349 -21 c-10 -9 -23 -12 -34 -8 -16 7 -16 9 7 21 30 16 48
8 27 -13z m117 0 c8 -14 -8 -27 -46 -39 -46 -13 -52 -8 -24 22 21 23 60 32 70
17z m306 -24 c0 -16 -3 -19 -11 -11 -6 6 -8 16 -5 22 11 17 16 13 16 -11z
m-240 2 c0 -5 -2 -10 -4 -10 -3 0 -8 5 -11 10 -3 6 -1 10 4 10 6 0 11 -4 11
-10z m-175 -40 c8 -13 -5 -13 -25 0 -13 8 -13 10 2 10 9 0 20 -4 23 -10z m245
-4 c0 -26 -90 -32 -98 -6 -3 9 1 11 12 7 9 -4 23 -10 31 -13 10 -4 15 0 15 10
0 9 8 16 20 16 11 0 20 -6 20 -14z m-666 -17 c-8 -14 -75 -40 -85 -33 -18 10
-9 24 16 24 14 0 25 3 25 8 0 4 11 8 25 8 14 1 22 -2 19 -7z m532 -56 c-6 -6
-46 30 -46 41 0 5 11 -1 25 -14 14 -13 23 -25 21 -27z m14 43 c0 -3 -4 -8 -10
-11 -5 -3 -10 -1 -10 4 0 6 5 11 10 11 6 0 10 -2 10 -4z m-295 -46 c19 0 19
-8 0 -27 -19 -19 -49 -9 -41 13 3 9 6 23 6 32 1 15 2 15 11 0 5 -10 17 -18 24
-18z m-152 -40 c3 -11 2 -20 -3 -20 -12 0 -31 26 -23 33 11 12 21 7 26 -13z
m307 1 c0 -4 -18 -8 -40 -8 -22 0 -40 4 -40 8 0 5 18 9 40 9 22 0 40 -4 40 -9z
m110 -52 c0 -5 -4 -9 -10 -9 -5 0 -10 7 -10 16 0 8 5 12 10 9 6 -3 10 -10 10
-16z m-224 -48 c-5 -2 -12 1 -14 8 -2 6 -10 11 -18 11 -8 0 -14 7 -14 16 0 12
6 11 28 -8 16 -13 24 -25 18 -27z m-186 29 c0 -5 -7 -10 -16 -10 -8 0 -12 5
-9 10 3 6 10 10 16 10 5 0 9 -4 9 -10z m-175 -20 c3 -5 1 -10 -4 -10 -6 0 -11
5 -11 10 0 6 2 10 4 10 3 0 8 -4 11 -10z m35 -10 c0 -5 -4 -10 -10 -10 -5 0
-10 5 -10 10 0 6 5 10 10 10 6 0 10 -4 10 -10z m115 -10 c-3 -5 -11 -10 -16
-10 -6 0 -7 5 -4 10 3 6 11 10 16 10 6 0 7 -4 4 -10z m-75 -10 c0 -5 -4 -10
-10 -10 -5 0 -10 5 -10 10 0 6 5 10 10 10 6 0 10 -4 10 -10z m135 -10 c3 -5
-1 -10 -10 -10 -9 0 -13 5 -10 10 3 6 8 10 10 10 2 0 7 -4 10 -10z m-150 -9
c3 -5 -2 -17 -11 -25 -21 -21 -22 -20 -16 9 4 25 16 32 27 16z m743 -3 c-6
-18 -28 -21 -28 -4 0 9 7 16 16 16 9 0 14 -5 12 -12z m-360 -25 c-5 -25 -28
-28 -28 -4 0 12 6 21 16 21 9 0 14 -7 12 -17z m85 10 c-7 -2 -19 -2 -25 0 -7
3 -2 5 12 5 14 0 19 -2 13 -5z m-358 -84 c12 -19 -5 -23 -22 -6 -16 16 -16 17
-1 17 9 0 20 -5 23 -11z"/>
<path d="M13923 6858 c2 -7 12 -13 22 -13 10 0 20 6 23 13 2 7 -6 12 -23 12
-17 0 -25 -5 -22 -12z"/>
<path d="M13767 6843 c-18 -17 -5 -33 28 -33 39 0 46 14 16 30 -23 12 -35 13
-44 3z"/>
<path d="M13685 6820 c-3 -5 1 -10 9 -10 9 0 16 5 16 10 0 6 -4 10 -9 10 -6 0
-13 -4 -16 -10z"/>
<path d="M14000 6816 c0 -14 29 -31 38 -22 2 3 2 12 -1 21 -8 19 -37 20 -37 1z"/>
<path d="M14005 6730 c3 -5 8 -10 11 -10 2 0 4 5 4 10 0 6 -5 10 -11 10 -5 0
-7 -4 -4 -10z"/>
<path d="M12241 6714 c0 -11 3 -14 6 -6 3 7 2 16 -1 19 -3 4 -6 -2 -5 -13z"/>
<path d="M12220 6680 c0 -5 5 -10 10 -10 6 0 10 5 10 10 0 6 -4 10 -10 10 -5
0 -10 -4 -10 -10z"/>
<path d="M13893 6364 c-18 -16 -24 -27 -16 -30 9 -4 6 -12 -8 -27 -11 -12 -17
-28 -14 -35 3 -8 -4 -30 -14 -51 -25 -46 -33 -101 -14 -101 7 0 13 -9 13 -20
0 -11 -6 -20 -14 -20 -9 0 -12 -7 -9 -20 3 -13 -1 -22 -12 -26 -17 -7 -17 -8
-1 -20 16 -11 16 -13 -2 -18 -29 -10 -52 4 -52 30 0 19 5 24 25 24 14 0 25 5
25 10 0 6 -10 10 -21 10 -22 0 -59 -34 -59 -55 0 -6 -16 -30 -35 -52 -34 -40
-35 -42 -13 -45 17 -2 24 -11 26 -30 2 -16 -1 -28 -7 -28 -6 0 -11 -7 -11 -15
0 -8 6 -15 13 -15 17 0 87 48 87 60 0 6 10 20 22 32 20 20 20 22 4 34 -16 11
-15 13 11 16 16 2 28 9 28 17 0 8 11 26 25 40 14 14 31 46 38 71 27 93 35 115
44 121 6 4 6 21 -1 44 -8 31 -7 45 6 73 14 29 14 35 2 43 -22 14 -36 11 -66
-17z"/>
<path d="M13646 6004 c-5 -13 -9 -14 -21 -4 -17 14 -31 8 -20 -9 3 -6 17 -11
31 -11 17 0 24 5 24 20 0 24 -6 26 -14 4z"/>
<path d="M11880 5769 c0 -5 14 -9 30 -9 39 0 39 15 0 16 -17 1 -30 -3 -30 -7z"/>
<path d="M12780 5685 c0 -8 4 -15 10 -15 5 0 7 7 4 15 -4 8 -8 15 -10 15 -2 0
-4 -7 -4 -15z"/>
<path d="M11936 1862 c-2 -4 -1 -14 3 -21 6 -10 10 -9 14 3 6 16 -8 32 -17 18z"/>
<path d="M10682 1848 c-16 -16 -15 -25 4 -32 12 -4 15 -2 10 9 -3 8 -1 15 4
15 6 0 10 5 10 10 0 14 -13 13 -28 -2z"/>
<path d="M10636 1821 c-4 -5 -2 -12 3 -15 5 -4 12 -2 15 3 4 5 2 12 -3 15 -5
4 -12 2 -15 -3z"/>
<path d="M11926 1806 c5 -13 63 -40 70 -33 3 3 0 14 -7 24 -12 21 -70 28 -63
9z"/>
<path d="M11897 1773 c-4 -3 -7 -19 -7 -35 0 -16 -6 -31 -15 -34 -8 -4 -15
-12 -15 -20 0 -8 -6 -14 -14 -14 -24 0 -29 -20 -10 -35 16 -11 17 -16 5 -38
-7 -13 -10 -34 -6 -46 4 -15 2 -21 -8 -21 -24 0 -42 -41 -45 -100 -2 -30 -7
-59 -11 -65 -5 -5 -9 -25 -9 -42 -1 -30 2 -33 28 -33 22 0 28 5 28 23 0 47 10
104 20 124 7 12 14 47 18 79 3 33 15 74 25 92 11 18 19 40 19 48 0 8 4 22 9
32 26 52 33 71 27 81 -8 12 -29 15 -39 4z"/>
<path d="M10614 1713 c-16 -56 -1 -122 27 -123 3 0 7 34 7 75 1 58 -1 75 -12
75 -8 0 -17 -12 -22 -27z"/>
<path d="M13392 1561 c-24 -21 -28 -41 -10 -59 9 -9 7 -16 -7 -32 -10 -11 -24
-20 -32 -20 -9 0 -12 -7 -7 -24 3 -13 1 -27 -5 -30 -16 -10 -14 -26 3 -26 8 0
16 -5 18 -12 3 -7 19 15 36 47 27 49 31 64 23 87 -8 23 -7 28 10 33 21 7 25
20 9 30 -6 4 -8 11 -5 16 10 16 -11 10 -33 -10z"/>
<path d="M13450 1554 c0 -8 5 -12 10 -9 6 3 10 10 10 16 0 5 -4 9 -10 9 -5 0
-10 -7 -10 -16z"/>
<path d="M10603 1552 c-7 -4 -11 -32 -10 -72 2 -58 4 -65 22 -65 17 0 20 6 18
35 -1 19 3 38 9 41 8 5 7 16 -2 38 -13 33 -18 35 -37 23z"/>
<path d="M10597 1377 c-8 -22 4 -37 29 -37 31 0 31 24 0 38 -18 8 -25 8 -29
-1z"/>
<path d="M13287 1347 c-11 -11 -17 -27 -14 -38 3 -10 1 -22 -4 -25 -5 -3 -8
-22 -7 -42 2 -28 -1 -36 -12 -35 -8 2 -21 -9 -27 -24 -15 -31 -16 -28 18 -36
21 -5 28 -2 39 19 8 14 13 38 12 54 -2 20 5 33 19 44 18 12 20 18 10 30 -14
16 -6 40 10 31 16 -11 10 10 -8 25 -16 14 -20 13 -36 -3z"/>
<path d="M14832 1363 c-41 -8 -62 -33 -55 -66 6 -27 4 -30 -16 -24 -43 11 -62
-44 -25 -74 11 -9 16 -5 25 15 7 14 18 26 26 26 7 0 13 11 13 24 0 18 12 32
45 53 58 37 52 59 -13 46z"/>
<path d="M10608 1304 c-3 -3 -2 -22 3 -42 4 -20 5 -56 2 -79 -6 -47 8 -58 27
-22 13 24 18 119 6 137 -7 12 -29 16 -38 6z"/>
<path d="M11774 1258 c-13 -14 -15 -22 -7 -25 9 -3 7 -13 -6 -36 -9 -18 -17
-45 -17 -62 1 -25 5 -30 29 -32 25 -2 26 0 16 19 -10 18 -8 25 12 41 18 14 20
20 9 27 -9 5 -11 19 -7 44 7 43 -4 53 -29 24z"/>
<path d="M14644 1202 c-12 -11 -13 -17 -5 -20 7 -2 16 -15 21 -28 11 -28 31
-31 45 -6 8 13 4 23 -17 44 -26 25 -29 25 -44 10z"/>
<path d="M13186 1104 c-12 -32 21 -47 43 -20 10 12 8 17 -8 25 -26 14 -28 14
-35 -5z"/>
<path d="M14589 1078 c-16 -50 -35 -73 -67 -83 -32 -9 -22 -30 16 -31 24 -1
32 4 37 23 3 13 18 35 34 49 16 14 31 39 33 55 4 24 1 29 -17 29 -17 0 -25
-10 -36 -42z"/>
<path d="M10613 1065 c-3 -9 -3 -18 -1 -21 9 -9 38 8 38 22 0 19 -29 18 -37
-1z"/>
<path d="M11745 1070 c-3 -5 -3 -14 0 -20 3 -5 -1 -26 -11 -45 -12 -26 -14
-39 -5 -48 6 -8 8 -17 4 -21 -11 -10 -13 -75 -3 -81 4 -3 19 4 31 14 24 19 24
20 5 34 -19 14 -19 16 -3 40 9 15 17 38 17 52 0 14 5 34 12 45 7 10 10 21 8
23 -13 12 -49 17 -55 7z m15 -190 c0 -5 -2 -10 -4 -10 -3 0 -8 5 -11 10 -3 6
-1 10 4 10 6 0 11 -4 11 -10z"/>
<path d="M13181 1035 c-12 -16 -21 -39 -19 -51 2 -12 -5 -31 -15 -42 -10 -11
-17 -23 -15 -28 1 -5 -2 -18 -8 -29 -8 -14 -7 -26 1 -42 13 -24 25 -21 25 7 0
10 7 23 16 31 8 7 13 21 11 31 -3 10 -1 18 4 18 5 0 9 9 9 20 0 11 -4 20 -10
20 -5 0 -10 5 -10 10 0 6 9 10 20 10 25 0 36 24 23 52 -9 21 -10 20 -32 -7z"/>
<path d="M10616 991 c-6 -9 16 -61 26 -61 14 0 18 19 8 44 -10 26 -24 33 -34
17z"/>
<path d="M14495 930 c-3 -5 1 -10 9 -10 9 0 16 5 16 10 0 6 -4 10 -9 10 -6 0
-13 -4 -16 -10z"/>
<path d="M11689 808 c-6 -11 -8 -30 -5 -43 3 -13 2 -27 -4 -30 -5 -3 -10 -14
-10 -24 0 -10 -7 -24 -15 -31 -24 -20 -6 -32 20 -13 17 14 20 21 12 31 -8 10
-5 14 12 19 20 5 22 11 18 39 -4 23 -1 34 9 38 20 8 17 23 -6 29 -14 3 -24 -1
-31 -15z"/>
<path d="M13083 804 c-8 -20 13 -42 27 -28 12 12 3 44 -11 44 -5 0 -12 -7 -16
-16z"/>
<path d="M13131 794 c0 -11 3 -14 6 -6 3 7 2 16 -1 19 -3 4 -6 -2 -5 -13z"/>
<path d="M14425 739 c-4 -6 -5 -13 -2 -16 7 -7 27 6 27 18 0 12 -17 12 -25 -2z"/>
<path d="M13085 731 c-3 -6 -3 -20 0 -32 5 -15 2 -22 -15 -26 -13 -4 -19 -11
-16 -20 3 -8 6 -19 6 -24 0 -5 10 -9 23 -9 20 1 21 2 5 14 -23 17 -23 22 2 29
16 4 19 12 17 36 -4 36 -12 47 -22 32z"/>
<path d="M15655 710 c-3 -5 -1 -10 4 -10 6 0 11 5 11 10 0 6 -2 10 -4 10 -3 0
-8 -4 -11 -10z"/>
<path d="M14400 654 c-7 -17 -7 -31 -1 -37 14 -14 31 1 31 28 0 35 -18 40 -30
9z"/>
<path d="M14440 670 c0 -5 7 -10 15 -10 8 0 15 5 15 10 0 6 -7 10 -15 10 -8 0
-15 -4 -15 -10z"/>
<path d="M11626 615 c-35 -38 -33 -50 7 -28 17 10 34 19 35 20 2 1 -1 9 -6 19
-9 16 -12 15 -36 -11z"/>
<path d="M15597 603 c-13 -12 -7 -43 8 -43 8 0 15 4 15 9 0 5 3 16 6 25 6 16
-16 23 -29 9z"/>
<path d="M13052 577 c-8 -9 -11 -21 -8 -26 4 -5 2 -12 -4 -16 -14 -9 -12 -37
3 -32 6 2 12 8 13 13 0 5 4 17 8 26 4 9 6 25 4 34 -3 16 -4 16 -16 1z"/>
<path d="M14400 570 c0 -5 5 -10 10 -10 6 0 10 5 10 10 0 6 -4 10 -10 10 -5 0
-10 -4 -10 -10z"/>
<path d="M14355 530 c-7 -12 2 -30 16 -30 5 0 9 9 9 20 0 21 -15 27 -25 10z"/>
<path d="M14340 466 c0 -9 5 -16 10 -16 6 0 10 4 10 9 0 6 -4 13 -10 16 -5 3
-10 -1 -10 -9z"/>
<path d="M14310 430 c0 -5 5 -10 10 -10 6 0 10 5 10 10 0 6 -4 10 -10 10 -5 0
-10 -4 -10 -10z"/>
<path d="M12990 421 c0 -6 5 -13 10 -16 6 -3 10 1 10 9 0 9 -4 16 -10 16 -5 0
-10 -4 -10 -9z"/>
</g>
</svg>
